# xmcd
#
# Track frame offsets: 
#        150
#        14862
#        28392
#        44297
#        60522
#        76152
#        90372
#        104742
#        118937
#        132562
#        146167
#        160680
#        176080
#        190402
#        203865
#        218640
#        234335
#        248547
#
# Disc length: 3518 seconds
#
# Revision: 1
# Processed by: cddbd v1.5.2PL0 Copyright (c) Steve Scherf et al.
# Submitted via: ExactAudioCopy v0.95b4
#
DISCID=040dbc12
DTITLE=Bessie Smith - St Louis Blues Vol 2
DYEAR=2003
DGENRE=Blues
TTITLE0=Haunted House Blues
TTITLE1=Eavesdropper's Blues
TTITLE2=Frankie Blues
TTITLE3=Rainy Weather Blues
TTITLE4=Salt Water Blues
TTITLE5=Weeping Willow Blues
TTITLE6=Sinful Blues
TTITLE7=The St Louis Blues
TTITLE8=Reckless Blues
TTITLE9=Sobbin' Hearted Blues
TTITLE10=Cold in Hand Blues
TTITLE11=You've been a Good Old Wagon
TTITLE12=Cake Walkin' Babies
TTITLE13=Yellow Dog Blues
TTITLE14=Soft Pedal Blues
TTITLE15=Careless Love Blues
TTITLE16=Dixie Flyer Blues
TTITLE17=I ain't going to play no second Fiddle
EXTD=
EXTT0=
EXTT1=
EXTT2=
EXTT3=
EXTT4=
EXTT5=
EXTT6=
EXTT7=
EXTT8=
EXTT9=
EXTT10=
EXTT11=
EXTT12=
EXTT13=
EXTT14=
EXTT15=
EXTT16=
EXTT17=
PLAYORDER=
